<svg xmlns="http://www.w3.org/2000/svg" shape-rendering="crispEdges" viewBox="0 -0.5 28 28"><path stroke="#000" d="M20 0h6m-6 1h6m-8 1h2m2 0h6M18 3h2m2 0h6M16 4h12M16 5h12M12 6h14M12 7h14M14 8h12M14 9h12m-14 1h2m2 0h8m-12 1h2m2 0h8m-14 1h2m6 0h4m-12 1h2m6 0h4M8 14h2m6 0h2m2 0h2M8 15h2m6 0h2m2 0h2M6 16h2m6 0h2M6 17h2m6 0h2M4 18h2m6 0h2M4 19h2m6 0h2M2 20h2m6 0h2M2 21h2m6 0h2M0 22h2m6 0h2M0 23h2m6 0h2M0 24h2m4 0h2m-8 1h2m4 0h2m-8 1h6m-6 1h6"/><path stroke="#fff" d="M20 2h2m-2 1h2m-8 7h2m-2 1h2m-4 1h6m-6 1h6m-8 1h6m-6 1h6m-8 1h6m-6 1h6m-8 1h4m-4 1h4m-6 1h4m-4 1h4m-6 1h4m-4 1h4"/><path stroke="#0f0" d="M10 18h2m-2 1h2m-4 1h2m-2 1h2m-4 1h2m-2 1h2m-6 1h4m-4 1h4"/></svg>