<svg xmlns="http://www.w3.org/2000/svg" viewBox="0 -0.5 24 24" shape-rendering="crispEdges">
<path stroke="#ff00ff" d="M2 0h4M2 1h4M0 2h6M0 3h6M0 4h4M0 5h4" />
<path stroke="#d2af00" d="M6 2h2M6 3h2M8 4h2M8 5h2M2 6h2M10 6h2M2 7h2M10 7h2M4 8h2M12 8h2M4 9h2M12 9h2M6 10h2M14 10h2M6 11h2M14 11h2M8 12h2M16 12h2M8 13h2M16 13h2M10 14h2M18 14h2M10 15h2M18 15h2M12 16h2M20 16h2M12 17h2M20 17h2M14 18h2M14 19h2M16 20h2M16 21h2" />
<path stroke="#ffff00" d="M4 4h4M4 5h4M4 6h6M4 7h6M6 8h6M6 9h6M8 10h6M8 11h6M10 12h6M10 13h6M12 14h6M12 15h6M14 16h6M14 17h6M16 18h6M16 19h6M18 20h2M18 21h2" />
<path stroke="#000000" d="M22 18h2M22 19h2M20 20h4M20 21h4M18 22h6M18 23h6" />
</svg>